<svg id="Layer_1" xmlns="http://www.w3.org/2000/svg" viewBox="0 0 206 240.7"><style>.st0,.st1{fill:#2DC0ED;stroke:#fff;stroke-width:3;stroke-miterlimit:10}.st1{fill:none}</style><path class="st0" d="M46 47.3c-19.7 6.9-33.2 20.9-33.2 36.9v112.9c0 13.1 27.6 23.7 61.5 23.7s61.5-10.6 61.5-23.7V84.2c0-16.1-13.5-30-33.2-36.9"/><path class="st0" d="M113 26.4v15c0 8.2-17.3 14.9-38.7 14.9s-38.7-6.7-38.7-14.9v-15"/><ellipse class="st0" cx="74.4" cy="26.4" rx="38.7" ry="14.9"/><path class="st0" d="M187.3 123.1v87.8c0 7.7-16.3 14-36.4 14s-36.4-6.3-36.4-14v-87.8"/><path class="st0" d="M193.2 88.7V115c0 9-18.9 16.2-42.2 16.2s-42.2-7.3-42.2-16.2V88.7M187.3 135.4c0 7.7-16.3 14-36.4 14-7.7 0-14.9-.9-20.8-2.5v57.2c5.9 1.6 13.1 2.5 20.8 2.5 20.1 0 36.4-6.3 36.4-14"/><ellipse class="st0" cx="150.9" cy="88.7" rx="42.2" ry="16.2"/><path class="st0" d="M187.3 192.7v-56.4"/><g><path class="st0" d="M109.6 229.2H93.9c-5.9 0-10.7-4.8-10.7-10.7 0-5.9 4.8-10.7 10.7-10.7h15.7"/><path class="st0" d="M109.6 207.9h15.7c5.9 0 10.7 4.8 10.7 10.7 0 5.9-4.8 10.7-10.7 10.7h-15.7"/><g><path class="st0" d="M85.4 218.1l-12.7 9.2c-4.8 3.4-11.5 2.3-14.9-2.4-3.4-4.8-2.3-11.5 2.4-14.9l12.7-9.2"/><path class="st0" d="M72.9 200.8l12.7-9.2c4.8-3.4 11.5-2.3 14.9 2.4 3.4 4.8 2.3 11.5-2.4 14.9l-12.7 9.2"/></g></g><path class="st0" d="M72.9 200.8l12.5 17.3"/><path class="st1" d="M109.6 229.2v-19.8"/></svg>